<svg width="88" height="37" viewBox="0 0 88 37" fill="none" xmlns="http://www.w3.org/2000/svg">
<path d="M2.37125 36V8.71731H13.1351C15.1955 8.71731 16.954 9.08587 18.4105 9.823C19.8759 10.5513 20.9904 11.5859 21.7542 12.9269C22.5269 14.2591 22.9132 15.8266 22.9132 17.6295C22.9132 19.4412 22.5224 20.9998 21.7409 22.3054C20.9594 23.602 19.827 24.5967 18.3439 25.2894C16.8696 25.9821 15.0845 26.3285 12.9886 26.3285H5.78159V21.6926H12.0561C13.1573 21.6926 14.0721 21.5416 14.8003 21.2396C15.5286 20.9377 16.0703 20.4847 16.4256 19.8808C16.7897 19.2769 16.9718 18.5265 16.9718 17.6295C16.9718 16.7236 16.7897 15.9598 16.4256 15.3382C16.0703 14.7165 15.5241 14.2458 14.787 13.9261C14.0588 13.5975 13.1396 13.4332 12.0294 13.4332H8.13951V36H2.37125ZM17.105 23.5842L23.8857 36H17.5179L10.8838 23.5842H17.105ZM35.8785 36.3996C33.7737 36.3996 31.9619 35.9734 30.4432 35.1208C28.9335 34.2593 27.77 33.0426 26.953 31.4706C26.1359 29.8898 25.7274 28.0203 25.7274 25.8622C25.7274 23.7574 26.1359 21.9102 26.953 20.3204C27.77 18.7307 28.9201 17.4918 30.4033 16.6037C31.8953 15.7156 33.6449 15.2716 35.652 15.2716C37.0019 15.2716 38.2586 15.4891 39.422 15.9243C40.5943 16.3506 41.6156 16.9945 42.486 17.8559C43.3652 18.7174 44.0491 19.8009 44.5375 21.1064C45.026 22.4031 45.2702 23.9217 45.2702 25.6624V27.221H27.9921V23.7041H39.9282C39.9282 22.8871 39.7506 22.1633 39.3954 21.5327C39.0401 20.9022 38.5472 20.4093 37.9167 20.054C37.295 19.6899 36.5712 19.5078 35.7453 19.5078C34.8838 19.5078 34.12 19.7077 33.4539 20.1073C32.7967 20.4981 32.2816 21.0265 31.9086 21.6926C31.5356 22.3498 31.3447 23.0825 31.3358 23.8906V27.2344C31.3358 28.2468 31.5223 29.1216 31.8953 29.8587C32.2772 30.5959 32.8145 31.1642 33.5072 31.5639C34.1999 31.9635 35.0214 32.1634 35.9717 32.1634C36.6023 32.1634 37.1795 32.0746 37.7035 31.8969C38.2275 31.7193 38.676 31.4529 39.049 31.0976C39.422 30.7424 39.7062 30.3072 39.9016 29.7921L45.1503 30.1385C44.8839 31.3996 44.3377 32.5009 43.5118 33.4422C42.6947 34.3748 41.6379 35.103 40.3412 35.627C39.0535 36.1421 37.5659 36.3996 35.8785 36.3996ZM54.8085 36.3863C53.503 36.3863 52.3396 36.1599 51.3182 35.7069C50.2969 35.2451 49.4887 34.5657 48.8937 33.6687C48.3075 32.7628 48.0145 31.6349 48.0145 30.285C48.0145 29.1482 48.2232 28.1935 48.6406 27.4209C49.058 26.6482 49.6264 26.0265 50.3458 25.5558C51.0651 25.0851 51.8822 24.7299 52.7969 24.4901C53.7206 24.2503 54.6886 24.0816 55.701 23.9839C56.8911 23.8596 57.8503 23.7441 58.5785 23.6375C59.3068 23.5221 59.8352 23.3533 60.1638 23.1313C60.4924 22.9093 60.6567 22.5807 60.6567 22.1455V22.0656C60.6567 21.2219 60.3903 20.5691 59.8574 20.1073C59.3334 19.6455 58.5874 19.4146 57.6194 19.4146C56.598 19.4146 55.7854 19.641 55.1815 20.094C54.5776 20.538 54.1779 21.0975 53.9826 21.7725L48.7338 21.3462C49.0003 20.1029 49.5243 19.0282 50.3058 18.1224C51.0873 17.2076 52.0953 16.506 53.3298 16.0176C54.5732 15.5202 56.0119 15.2716 57.646 15.2716C58.7828 15.2716 59.8707 15.4048 60.9098 15.6712C61.9578 15.9376 62.8858 16.3506 63.694 16.9101C64.5111 17.4696 65.155 18.189 65.6257 19.0682C66.0964 19.9386 66.3317 20.9821 66.3317 22.1988V36H60.9498V33.1625H60.7899C60.4613 33.8019 60.0217 34.3659 59.4711 34.8543C58.9204 35.3339 58.2588 35.7114 57.4861 35.9867C56.7135 36.2531 55.8209 36.3863 54.8085 36.3863ZM56.4337 32.4698C57.2686 32.4698 58.0057 32.3055 58.6451 31.9769C59.2846 31.6394 59.7863 31.1865 60.1505 30.6181C60.5146 30.0497 60.6967 29.4058 60.6967 28.6864V26.515C60.519 26.6305 60.2748 26.737 59.964 26.8347C59.662 26.9235 59.3201 27.0079 58.9382 27.0878C58.5563 27.1589 58.1744 27.2255 57.7925 27.2877C57.4107 27.3409 57.0643 27.3898 56.7535 27.4342C56.0874 27.5319 55.5057 27.6873 55.0083 27.9005C54.511 28.1136 54.1247 28.4022 53.8493 28.7664C53.574 29.1216 53.4364 29.5657 53.4364 30.0985C53.4364 30.8712 53.7161 31.4618 54.2756 31.8703C54.844 32.2699 55.5634 32.4698 56.4337 32.4698ZM76.4095 8.71731V36H70.7345V8.71731H76.4095Z" fill="white" fill-opacity="0.5"/>
<rect x="80.1704" y="29.0769" width="7.03249" height="6.92309" rx="1.4065" fill="white" fill-opacity="0.5"/>
</svg>
