<svg width="32" height="32" viewBox="0 0 32 32" fill="none" xmlns="http://www.w3.org/2000/svg">
<g clip-path="url(#clip0_520_916)">
<path d="M11.9512 29.0309C9.26353 31.7185 4.87905 31.7185 2.19144 29.0309C-0.496137 26.3434 -0.496106 21.9589 2.19154 19.2712L8.29142 13.1713C10.8537 10.6091 14.9504 10.4676 17.6604 12.7995C17.922 13.0232 18.0841 13.3417 18.1109 13.6849C18.1377 14.0281 18.0271 14.3678 17.8034 14.6295C17.5797 14.8911 17.2612 15.0532 16.918 15.08C16.5748 15.1068 16.235 14.9962 15.9734 14.7725C14.2679 13.305 11.7481 13.3746 10.1214 15.0013L4.02147 21.1011C2.31596 22.8066 2.31595 25.4955 4.02141 27.201C5.72689 28.9065 8.41574 28.9064 10.1212 27.2009L15.9161 21.406C16.0357 21.2834 16.1785 21.1857 16.3361 21.1187C16.4938 21.0517 16.6632 21.0166 16.8345 21.0155C17.0057 21.0145 17.1755 21.0474 17.334 21.1125C17.4925 21.1775 17.6364 21.2734 17.7576 21.3945C17.8787 21.5157 17.9746 21.6596 18.0396 21.8181C18.1047 21.9766 18.1376 22.1464 18.1366 22.3177C18.1355 22.489 18.1004 22.6583 18.0334 22.816C17.9664 22.9736 17.8687 23.1164 17.7461 23.236L11.9512 29.0309ZM22.931 18.0511C20.3687 20.6133 16.2721 20.7548 13.562 18.4228C13.4316 18.3123 13.3244 18.1772 13.2464 18.0251C13.1684 17.873 13.1212 17.707 13.1075 17.5367C13.0938 17.3663 13.1139 17.1949 13.1667 17.0323C13.2194 16.8698 13.3037 16.7192 13.4148 16.5893C13.5259 16.4594 13.6615 16.3527 13.8139 16.2753C13.9663 16.198 14.1325 16.1515 14.3029 16.1386C14.4734 16.1256 14.6447 16.1465 14.807 16.1999C14.9694 16.2533 15.1196 16.3383 15.249 16.4499C16.9545 17.9174 19.4743 17.8478 21.101 16.2211L27.2009 10.1212C28.9064 8.41572 28.9064 5.72687 27.201 4.02141C25.4955 2.31594 22.8066 2.31599 21.1012 4.02149L15.3063 9.81637C15.1867 9.93933 15.044 10.0373 14.8862 10.1046C14.7285 10.1719 14.559 10.2072 14.3875 10.2084C14.216 10.2097 14.046 10.1768 13.8873 10.1117C13.7287 10.0467 13.5845 9.95071 13.4633 9.82945C13.342 9.70819 13.246 9.56403 13.181 9.40536C13.1159 9.2467 13.083 9.0767 13.0843 8.90522C13.0855 8.73374 13.1208 8.5642 13.1881 8.40647C13.2554 8.24874 13.3534 8.10597 13.4763 7.98644L19.2712 2.19153C21.9589 -0.496108 26.3434 -0.496135 29.0309 2.19145C31.7186 4.87906 31.7185 9.26356 29.0309 11.9512L22.931 18.0511Z" fill="white"/>
</g>
<defs>
<clipPath id="clip0_520_916">
<rect width="31.0556" height="31.0556" fill="white" transform="translate(0.0834961 0.0834961)"/>
</clipPath>
</defs>
</svg>
