<svg width="3335" height="2631" viewBox="0 0 3335 2631" fill="none" xmlns="http://www.w3.org/2000/svg">
<path d="M860.692 974.526C875.687 1611.78 2366.87 1949.16 2407.35 1874.18C2441.09 1808.96 1476.96 1470.09 1475.46 942.289C1473.96 414.489 2436.59 61.3738 2407.35 7.39437C2371.37 -59.3302 844.948 330.521 860.692 974.526Z" fill="white"/>
<path d="M249.655 2067.37C319.129 2067.37 373.608 2085.11 413.093 2120.6C453.078 2155.59 473.07 2206.82 473.07 2274.29C473.07 2341.76 453.078 2393.25 413.093 2428.73C373.608 2463.72 319.129 2481.21 249.655 2481.21C180.181 2481.21 125.702 2463.72 86.2172 2428.73C46.7322 2393.75 26.9897 2342.26 26.9897 2274.29C26.9897 2206.32 46.7322 2154.84 86.2172 2119.85C125.702 2084.86 180.181 2067.37 249.655 2067.37ZM249.655 2168.58C200.674 2168.58 176.183 2196.82 176.183 2253.3V2296.03C176.183 2352.01 200.674 2380 249.655 2380C299.136 2380 323.877 2352.01 323.877 2296.03V2253.3C323.877 2196.82 299.136 2168.58 249.655 2168.58ZM706.225 1919.68C717.221 1919.68 730.966 1921.17 747.46 1924.17C763.953 1926.67 777.198 1929.67 787.195 1933.17V2020.89H752.708C736.714 2020.89 725.718 2023.89 719.72 2029.88C713.723 2035.88 710.724 2046.13 710.724 2060.62V2076.37H787.195V2177.58H710.724V2472.22H561.53V2177.58H506.052V2076.37H561.53V2059.87C561.53 2008.89 574.026 1972.91 599.016 1951.91C624.007 1930.42 659.743 1919.68 706.225 1919.68ZM1390.19 2067.37C1443.67 2067.37 1484.9 2084.86 1513.89 2119.85C1542.88 2154.84 1557.37 2206.57 1557.37 2275.04C1557.37 2343.01 1542.88 2394.49 1513.89 2429.48C1484.9 2463.97 1443.67 2481.21 1390.19 2481.21C1344.21 2481.21 1307.22 2466.22 1279.23 2436.23V2619.91H1130.04V2076.37H1251.49L1264.24 2132.59C1293.22 2089.11 1335.21 2067.37 1390.19 2067.37ZM1343.71 2177.58C1321.71 2177.58 1305.22 2185.32 1294.22 2200.82C1283.23 2216.31 1277.73 2236.55 1277.73 2261.55V2286.29C1277.73 2311.28 1283.23 2331.77 1294.22 2347.76C1305.22 2363.26 1321.71 2371 1343.71 2371C1386.69 2371 1408.18 2345.26 1408.18 2293.78V2254.05C1408.18 2203.07 1386.69 2177.58 1343.71 2177.58ZM1634.59 2472.22V1928.67H1783.78V2472.22H1634.59ZM2074.68 2067.37C2135.15 2067.37 2184.39 2077.62 2222.37 2098.11C2260.36 2118.1 2279.35 2150.84 2279.35 2196.32V2350.76C2279.35 2359.26 2281.35 2366.26 2285.35 2371.75C2289.35 2377.25 2295.34 2380 2303.34 2380H2330.33V2466.22C2328.83 2467.22 2324.83 2468.97 2318.33 2471.47C2312.34 2473.46 2303.59 2475.46 2292.09 2477.46C2280.6 2479.96 2267.35 2481.21 2252.36 2481.21C2223.37 2481.21 2199.38 2476.96 2180.39 2468.47C2161.89 2459.47 2149.15 2447.22 2142.15 2431.73C2123.16 2446.73 2101.92 2458.72 2078.43 2467.72C2054.93 2476.71 2027.45 2481.21 1995.96 2481.21C1902.99 2481.21 1856.51 2444.23 1856.51 2370.25C1856.51 2331.77 1866.76 2302.53 1887.25 2282.54C1908.24 2262.05 1938.23 2248.05 1977.21 2240.55C2016.2 2233.06 2067.18 2229.31 2130.16 2229.31V2209.82C2130.16 2194.32 2124.66 2182.58 2113.66 2174.58C2103.17 2166.58 2089.42 2162.58 2072.43 2162.58C2056.93 2162.58 2043.44 2165.33 2031.94 2170.83C2020.95 2176.33 2015.45 2185.07 2015.45 2197.07V2200.07H1868.51C1868.01 2197.57 1867.76 2194.07 1867.76 2189.57C1867.76 2152.09 1885.5 2122.35 1920.99 2100.36C1956.97 2078.37 2008.2 2067.37 2074.68 2067.37ZM2130.16 2299.78C2087.67 2299.78 2056.18 2304.53 2035.69 2314.03C2015.7 2323.02 2005.7 2335.27 2005.7 2350.76C2005.7 2375.75 2022.7 2388.25 2056.68 2388.25C2076.18 2388.25 2093.17 2383 2107.66 2372.5C2122.66 2362.01 2130.16 2349.01 2130.16 2333.52V2299.78ZM2583.73 2067.37C2648.7 2067.37 2701.18 2081.36 2741.17 2109.35C2781.65 2136.84 2801.89 2179.08 2801.89 2236.06H2657.2C2657.2 2191.07 2632.71 2168.58 2583.73 2168.58C2534.75 2168.58 2510.26 2196.82 2510.26 2253.3V2296.03C2510.26 2352.01 2535.75 2380 2586.73 2380C2637.71 2380 2663.2 2357.01 2663.2 2311.03H2801.89C2801.89 2368.5 2781.65 2411.24 2741.17 2439.23C2701.18 2467.22 2648.7 2481.21 2583.73 2481.21C2514.25 2481.21 2459.77 2463.72 2420.29 2428.73C2380.8 2393.75 2361.06 2342.26 2361.06 2274.29C2361.06 2206.32 2380.8 2154.84 2420.29 2119.85C2459.77 2084.86 2514.25 2067.37 2583.73 2067.37ZM3083.78 2067.37C3156.25 2067.37 3211.48 2084.36 3249.47 2118.35C3287.95 2152.34 3307.2 2204.32 3307.2 2274.29V2299.78H3010.31C3010.31 2328.27 3016.56 2349.76 3029.05 2364.26C3042.05 2378.75 3062.29 2386 3089.78 2386C3114.77 2386 3133.01 2380.75 3144.51 2370.25C3156.5 2359.76 3162.5 2345.76 3162.5 2328.27H3307.2C3307.2 2376.25 3288.95 2413.74 3252.47 2440.73C3215.98 2467.72 3162.75 2481.21 3092.78 2481.21C3019.31 2481.21 2962.33 2464.22 2921.84 2430.23C2881.36 2395.74 2861.12 2343.76 2861.12 2274.29C2861.12 2206.32 2880.86 2154.84 2920.34 2119.85C2959.83 2084.86 3014.31 2067.37 3083.78 2067.37ZM3089.78 2162.58C3042.8 2162.58 3016.56 2184.82 3011.06 2229.31H3156.5C3156.5 2208.82 3150.51 2192.57 3138.51 2180.58C3127.02 2168.58 3110.77 2162.58 3089.78 2162.58Z" fill="white"/>
</svg>
