<svg width="13" height="8" viewBox="0 0 13 8" fill="none" xmlns="http://www.w3.org/2000/svg">
<g clip-path="url(#clip0_596_110)">
<path d="M0 0V7.4H12.3333V0H0Z" fill="#012169"/>
<path d="M0 0L12.3333 7.4L0 0ZM12.3333 0L0 7.4L12.3333 0Z" fill="black"/>
<path d="M0 0L12.3333 7.4M12.3333 0L0 7.4" stroke="white" stroke-width="1.48"/>
<mask id="mask0_596_110" style="mask-type:luminance" maskUnits="userSpaceOnUse" x="0" y="0" width="13" height="8">
<path d="M6.16667 3.7H12.3333V7.4L6.16667 3.7ZM6.16667 3.7V7.4H0L6.16667 3.7ZM6.16667 3.7H0V0L6.16667 3.7ZM6.16667 3.7V0H12.3333L6.16667 3.7Z" fill="white"/>
</mask>
<g mask="url(#mask0_596_110)">
<path d="M0 0L12.3333 7.4L0 0ZM12.3333 0L0 7.4L12.3333 0Z" fill="black"/>
<path d="M0 0L12.3333 7.4M12.3333 0L0 7.4" stroke="#C8102E" stroke-width="0.986667"/>
</g>
<path d="M-0.246826 2.71333H5.17984V-0.246674H7.15317V2.71333H12.5798V4.68666H7.15317V7.64666H5.17984V4.68666H-0.246826V2.71333Z" fill="#C8102E" stroke="white" stroke-width="0.493333"/>
</g>
<defs>
<clipPath id="clip0_596_110">
<rect width="12.3333" height="7.4" rx="1" fill="white"/>
</clipPath>
</defs>
</svg>
