<svg width="161" height="161" viewBox="0 0 161 161" fill="none" xmlns="http://www.w3.org/2000/svg">
<path d="M55.4401 63.0571V100.451H48.7142V69.6574H48.4884L39.7548 75.254V69.03L49.0405 63.0571H55.4401ZM74.3378 100.953C71.3095 100.953 68.7162 100.2 66.5579 98.6941C64.4163 97.1716 62.7767 94.9882 61.6389 92.1439C60.5012 89.2829 59.9324 85.828 59.9324 81.7791C59.9324 77.7301 60.5012 74.2752 61.6389 71.4142C62.7767 68.5365 64.4163 66.3447 66.5579 64.8389C68.7162 63.3164 71.3095 62.5551 74.3378 62.5551C77.3494 62.5551 79.9343 63.3164 82.0926 64.8389C84.2509 66.3614 85.8989 68.5532 87.0366 71.4142C88.1743 74.2752 88.7432 77.7301 88.7432 81.7791C88.7432 85.828 88.1743 89.2829 87.0366 92.1439C85.8989 94.9882 84.2593 97.1716 82.1177 98.6941C79.9761 100.2 77.3828 100.953 74.3378 100.953ZM74.3378 95.281C75.9607 95.281 77.3326 94.754 78.4536 93.6999C79.5913 92.6458 80.453 91.115 81.0386 89.1072C81.6409 87.0828 81.942 84.6401 81.942 81.7791C81.942 78.9013 81.6409 76.4502 81.0386 74.4258C80.453 72.4013 79.5913 70.8621 78.4536 69.808C77.3326 68.7372 75.9607 68.2018 74.3378 68.2018C71.8951 68.2018 70.0128 69.3897 68.6911 71.7655C67.386 74.1246 66.7335 77.4625 66.7335 81.7791C66.7335 84.6401 67.0263 87.0828 67.6119 89.1072C68.1975 91.115 69.0591 92.6458 70.1969 93.6999C71.3346 94.754 72.7149 95.281 74.3378 95.281ZM103.977 98.2424V72.9702H109.699V98.2424H103.977ZM94.2142 88.4798V82.7327H119.461V88.4798H94.2142Z" fill="white"/>
<path d="M157.939 80.559C157.939 123.36 123.24 158.057 80.4374 158.057C37.6345 158.057 2.93605 123.36 2.93605 80.559C2.93605 37.7581 37.6345 3.06093 80.4374 3.06093C123.24 3.06093 157.939 37.7581 157.939 80.559Z" stroke="white" stroke-opacity="0.3" stroke-width="5.62162"/>
<path d="M67.7198 4.11144C78.29 2.35319 89.1099 2.80584 99.4962 5.44081C109.883 8.07579 119.61 12.8358 128.063 19.4203C136.516 26.0047 143.512 34.2705 148.609 43.6956C153.706 53.1207 156.793 63.5003 157.676 74.1788C158.558 84.8574 157.216 95.6028 153.735 105.736C150.253 115.87 144.709 125.172 137.45 133.054C130.192 140.936 121.378 147.228 111.565 151.532C101.752 155.835 91.1527 158.057 80.4374 158.057" stroke="white" stroke-width="5.62162"/>
</svg>
