<svg width="161" height="161" viewBox="0 0 161 161" fill="none" xmlns="http://www.w3.org/2000/svg">
<path d="M71.6887 63.0573V100.451H64.9629V69.6577H64.737L56.0034 75.2542V69.0303L65.2891 63.0573H71.6887ZM87.8509 98.2426V72.9704H93.5729V98.2426H87.8509ZM78.0883 88.4801V82.733H103.335V88.4801H78.0883Z" fill="white"/>
<path d="M157.939 80.559C157.939 123.36 123.241 158.057 80.4381 158.057C37.6352 158.057 2.93679 123.36 2.93679 80.559C2.93679 37.7581 37.6352 3.06093 80.4381 3.06093C123.241 3.06093 157.939 37.7581 157.939 80.559Z" stroke="white" stroke-opacity="0.3" stroke-width="5.62162"/>
<path d="M156.889 67.842C158.647 78.4117 158.194 89.2311 155.559 99.6169C152.924 110.003 148.164 119.729 141.579 128.182C134.995 136.636 126.729 143.631 117.303 148.728C107.878 153.825 97.4975 156.912 86.8185 157.794C76.1395 158.676 65.3936 157.334 55.2595 153.853C45.1253 150.372 35.8232 144.827 27.9406 137.569C20.058 130.311 13.7661 121.498 9.46247 111.685C5.15879 101.872 2.93679 91.2739 2.93679 80.559" stroke="white" stroke-width="5.62162"/>
</svg>
