<svg width="58" height="58" viewBox="0 0 58 58" fill="none" xmlns="http://www.w3.org/2000/svg">
<path d="M5.57322 0.880005C3.00816 0.880005 0.879883 3.00828 0.879883 5.57334V31.3867C0.879883 33.9517 3.00816 36.08 5.57322 36.08H10.2665H21.9999V45.4667H12.6132V38.4267L10.2665 36.08L7.91988 38.4267V45.4667L12.6132 50.16H21.9999V52.5067C21.9999 55.0997 24.1001 57.2 26.6932 57.2H52.5065C55.0996 57.2 57.1999 55.0997 57.1999 52.5067V26.6933C57.1999 24.1003 55.0996 22 52.5065 22H36.0799V5.57334C36.0799 3.00828 33.9516 0.880005 31.3865 0.880005H5.57322ZM5.57322 5.57334H31.3865V22H26.6932C24.1001 22 21.9999 24.1003 21.9999 26.6933V31.3867H5.57322V5.57334ZM21.9999 26.6933V24.3467C21.4256 24.3467 20.8767 24.2757 20.3361 24.1908C20.3921 24.1501 20.4552 24.1181 20.5103 24.0763C23.024 22.1658 24.3465 19.069 24.3465 14.96H26.6932V12.6133H19.6532V9.09334H17.3065V12.6133H10.2665V14.96H21.9999C21.9999 18.595 20.9758 20.7773 19.0895 22.2108C18.5737 22.6028 17.9591 22.9314 17.2836 23.2146C16.526 22.8399 15.8143 22.4157 15.2165 21.9129C13.5338 20.4975 12.6132 18.6953 12.6132 17.3067H10.2665C10.2665 19.6469 11.6128 21.9505 13.704 23.7096C13.8425 23.8261 14.0123 23.9188 14.1578 24.0304C12.9811 24.2184 11.7146 24.3467 10.2665 24.3467V26.6933C12.8838 26.6933 15.2136 26.4227 17.2057 25.7675C18.6579 26.3414 20.268 26.6933 21.9999 26.6933ZM37.024 31.3317H42.1665L47.7261 47.8683H43.1428L42.1115 44.2338H36.7124L35.649 47.8683H31.4782L37.024 31.3317ZM39.3249 35.0579L37.5145 41.2088H41.3186L39.5449 35.0579H39.3249Z" fill="white"/>
</svg>
