<svg width="12" height="8" viewBox="0 0 12 8" fill="none" xmlns="http://www.w3.org/2000/svg">
<g clip-path="url(#clip0_1036_118)">
<path d="M0 0V8H12V0H0Z" fill="#012169"/>
<path d="M0 0L12 8ZM12 0L0 8Z" fill="black"/>
<path d="M0 0L12 8M12 0L0 8" stroke="white" stroke-width="1.48"/>
<mask id="mask0_1036_118" style="mask-type:luminance" maskUnits="userSpaceOnUse" x="0" y="0" width="12" height="8">
<path d="M6 4H12V8L6 4ZM6 4V8H0L6 4ZM6 4H0V0L6 4ZM6 4V0H12L6 4Z" fill="white"/>
</mask>
<g mask="url(#mask0_1036_118)">
<path d="M0 0L12 8ZM12 0L0 8Z" fill="black"/>
<path d="M0 0L12 8M12 0L0 8" stroke="#C8102E" stroke-width="0.986667"/>
</g>
<path d="M-0.240234 2.93334H5.03977V-0.266663H6.95977V2.93334H12.2398V5.06667H6.95977V8.26667H5.03977V5.06667H-0.240234V2.93334Z" fill="#C8102E" stroke="white" stroke-width="0.493333"/>
</g>
<defs>
<clipPath id="clip0_1036_118">
<rect width="12" height="8" rx="1" fill="white"/>
</clipPath>
</defs>
</svg>
